<svg width="1.72in" height="1.72667in" viewBox="0 0 516 518">
  <path fill="black" stroke="none" stroke-width="0"
        d="M 30.00,37.23
           C 35.56,36.69 41.38,37.00 47.00,37.23
             59.86,37.00 79.05,34.16 87.35,46.00
             92.19,52.91 91.00,63.84 91.00,72.00
             91.00,86.49 94.87,109.81 77.00,115.20
             74.02,116.10 71.07,116.00 68.00,116.00
             68.00,116.00 34.00,116.00 34.00,116.00
             27.31,115.97 22.05,115.06 17.21,109.90
             12.35,104.70 12.01,98.69 12.00,92.00
             12.00,92.00 12.00,69.00 12.00,69.00
             12.00,58.04 10.55,46.28 22.01,40.05
             24.55,38.67 27.22,38.08 30.00,37.23 Z
           M 148.00,57.09
           C 148.00,57.09 181.00,57.09 181.00,57.09
             181.00,57.09 240.00,57.09 240.00,57.09
             240.00,57.09 423.00,57.09 423.00,57.09
             423.00,57.09 480.00,57.09 480.00,57.09
             493.15,57.02 504.93,62.98 503.90,78.00
             503.01,91.03 493.86,95.98 482.00,96.00
             482.00,96.00 152.00,96.00 152.00,96.00
             146.33,95.99 142.83,95.92 138.02,92.36
             126.88,84.14 126.42,61.62 148.00,57.09 Z
           M 26.00,156.53
           C 26.00,156.53 70.00,156.00 70.00,156.00
             77.17,156.04 82.99,157.74 87.30,164.02
             92.14,171.06 91.00,181.77 91.00,190.00
             91.00,204.18 94.81,227.05 78.00,232.89
             74.47,234.12 71.64,233.99 68.00,234.00
             68.00,234.00 34.00,234.00 34.00,234.00
             27.42,233.99 23.21,233.60 18.10,228.79
             13.34,224.31 12.08,219.28 12.00,213.00
             12.00,213.00 12.00,186.00 12.00,186.00
             12.00,173.34 11.13,161.30 26.00,156.53 Z
           M 148.00,175.09
           C 148.00,175.09 181.00,175.09 181.00,175.09
             181.00,175.09 240.00,175.09 240.00,175.09
             240.00,175.09 423.00,175.09 423.00,175.09
             423.00,175.09 479.00,175.09 479.00,175.09
             492.31,175.02 504.97,180.36 503.90,196.00
             502.82,211.78 490.26,214.98 477.00,215.00
             477.00,215.00 157.00,215.00 157.00,215.00
             149.05,214.99 140.96,214.13 135.22,207.90
             132.39,204.82 131.59,202.00 130.93,198.00
             128.92,185.86 136.44,177.71 148.00,175.09 Z
           M 26.00,274.64
           C 26.00,274.64 69.00,274.00 69.00,274.00
             76.53,274.04 82.58,275.37 87.15,282.02
             92.24,289.43 91.00,299.40 91.00,308.00
             91.00,308.00 91.00,323.00 91.00,323.00
             91.00,334.61 91.24,346.25 78.00,351.03
             74.92,352.15 72.21,351.99 69.00,352.00
             69.00,352.00 33.00,352.00 33.00,352.00
             27.32,351.97 23.55,351.75 19.04,347.78
             12.79,342.27 12.01,336.79 12.00,329.00
             12.00,329.00 12.00,297.00 12.00,297.00
             12.01,292.47 11.91,289.24 13.92,285.00
             16.55,279.45 20.43,276.74 26.00,274.64 Z
           M 149.00,293.11
           C 149.00,293.11 188.00,293.11 188.00,293.11
             188.00,293.11 260.00,293.11 260.00,293.11
             260.00,293.11 478.00,293.11 478.00,293.11
             484.33,293.01 491.48,293.38 496.57,297.64
             506.71,306.11 506.75,322.60 494.96,329.64
             489.88,332.67 483.75,332.99 478.00,333.00
             478.00,333.00 156.00,333.00 156.00,333.00
             149.08,332.99 142.48,332.67 137.04,327.79
             126.44,318.27 127.29,297.65 149.00,293.11 Z
           M 27.00,392.53
           C 27.00,392.53 68.00,392.00 68.00,392.00
             75.36,392.01 81.47,392.77 86.36,399.09
             92.28,406.73 91.00,417.88 91.00,427.00
             91.00,441.91 95.11,465.01 76.00,469.76
             71.37,470.91 68.69,470.99 64.00,471.00
             55.12,471.01 32.23,471.97 25.00,469.39
             21.87,468.27 19.42,466.42 17.21,463.96
             12.37,458.55 12.01,453.84 12.00,447.00
             12.00,447.00 12.00,424.00 12.00,424.00
             12.00,409.94 10.19,397.55 27.00,392.53 Z
           M 145.00,412.53
           C 145.00,412.53 184.00,412.00 184.00,412.00
             184.00,412.00 257.00,412.00 257.00,412.00
             257.00,412.00 483.00,412.00 483.00,412.00
             486.55,412.01 489.72,411.81 493.00,413.45
             504.78,419.34 507.85,435.24 498.67,444.79
             493.22,450.46 486.35,450.99 479.00,451.00
             479.00,451.00 155.00,451.00 155.00,451.00
             146.97,450.99 140.94,450.37 135.21,443.96
             125.16,432.71 131.28,416.81 145.00,412.53 Z" />
</svg>
