<svg width="42.6808mm" height="54.6737mm" viewBox="0 0 121 155">
  <path fill="black" stroke="none" stroke-width="0"
        d="M 12.00,24.57
           C 12.00,24.57 44.00,24.00 44.00,24.00
             47.38,24.05 50.95,24.18 53.57,26.65
             56.23,29.16 55.98,32.65 56.00,36.00
             56.00,36.00 56.00,64.00 56.00,64.00
             55.98,67.20 56.15,70.22 53.69,72.69
             51.04,75.33 47.43,74.99 44.00,75.00
             44.00,75.00 16.00,75.00 16.00,75.00
             12.41,74.95 9.34,74.98 7.01,71.77
             5.12,69.18 5.04,66.06 5.00,63.00
             5.00,63.00 5.00,37.00 5.00,37.00
             5.08,30.55 5.56,27.17 12.00,24.57 Z
           M 70.02,24.65
           C 75.73,23.46 95.07,23.92 102.00,24.00
             105.02,24.04 108.27,24.07 110.87,25.85
             114.78,28.53 114.94,32.73 115.00,37.00
             115.00,37.00 115.00,63.00 115.00,63.00
             114.95,66.38 114.86,69.82 112.35,72.43
             109.56,75.33 105.68,74.99 102.00,75.00
             102.00,75.00 75.00,75.00 75.00,75.00
             71.36,74.97 68.03,75.11 65.60,71.85
             64.03,69.76 64.05,67.48 64.00,65.00
             64.00,65.00 64.00,36.00 64.00,36.00
             64.03,29.82 63.91,27.36 70.02,24.65 Z
           M 47.00,34.00
           C 47.00,34.00 15.00,34.00 15.00,34.00
             15.00,34.00 15.00,66.00 15.00,66.00
             15.00,66.00 47.00,66.00 47.00,66.00
             47.00,66.00 47.00,34.00 47.00,34.00 Z
           M 105.00,34.00
           C 105.00,34.00 73.00,34.00 73.00,34.00
             73.00,34.00 73.00,66.00 73.00,66.00
             73.00,66.00 105.00,66.00 105.00,66.00
             105.00,66.00 105.00,34.00 105.00,34.00 Z
           M 10.10,83.74
           C 15.74,82.31 36.81,82.99 44.00,83.00
             46.96,83.01 50.35,82.73 52.85,84.60
             56.36,87.22 55.99,91.11 56.00,95.00
             56.00,95.00 56.00,122.00 56.00,122.00
             55.98,125.45 56.13,128.75 53.43,131.35
             50.38,134.28 45.90,133.99 42.00,134.00
             42.00,134.00 18.00,134.00 18.00,134.00
             14.98,133.96 11.73,133.93 9.13,132.15
             4.67,129.09 5.01,123.77 5.00,119.00
             5.00,119.00 5.00,95.00 5.00,95.00
             5.07,89.68 5.30,86.71 10.10,83.74 Z
           M 68.06,84.02
           C 73.92,82.01 94.55,82.99 102.00,83.00
             104.68,83.00 108.44,82.78 110.79,84.17
             114.65,86.47 114.94,91.01 115.00,95.00
             115.00,95.00 115.00,121.00 115.00,121.00
             114.95,124.84 114.85,128.73 111.72,131.49
             108.56,134.28 103.94,133.99 100.00,134.00
             100.00,134.00 76.00,134.00 76.00,134.00
             72.94,133.96 69.82,133.88 67.23,131.99
             64.02,129.66 64.05,126.59 64.00,123.00
             64.00,123.00 64.00,94.00 64.00,94.00
             64.04,88.87 63.82,87.33 68.06,84.02 Z
           M 47.00,92.00
           C 47.00,92.00 15.00,92.00 15.00,92.00
             15.00,92.00 15.00,124.00 15.00,124.00
             15.00,124.00 47.00,124.00 47.00,124.00
             47.00,124.00 47.00,92.00 47.00,92.00 Z
           M 105.00,92.00
           C 105.00,92.00 73.00,92.00 73.00,92.00
             73.00,92.00 73.00,124.00 73.00,124.00
             73.00,124.00 105.00,124.00 105.00,124.00
             105.00,124.00 105.00,92.00 105.00,92.00 Z" />
</svg>
