<svg width="180.6mm" height="180.6mm" viewBox="0 0 512 512" class="info-icon">
  <path fill="black" stroke="none" stroke-width="0"
        d="M 244.00,42.42
           C 264.67,39.91 296.87,45.13 317.00,50.86
             341.09,57.71 364.99,69.88 385.00,84.89
             401.45,97.23 416.50,112.34 428.58,129.00
             488.76,212.03 482.64,324.92 413.83,401.00
             396.41,420.27 375.16,435.66 352.00,447.25
             319.82,463.33 285.87,470.42 250.00,470.00
             250.00,470.00 240.00,469.09 240.00,469.09
             221.84,467.82 204.30,464.43 187.00,458.67
             166.32,451.77 144.42,440.17 127.00,427.11
             40.57,362.28 17.66,243.55 69.86,150.00
             95.74,103.62 140.32,67.78 191.00,52.02
             205.25,47.60 218.21,45.04 233.00,43.28
             233.00,43.28 244.00,42.42 244.00,42.42 Z
           M 242.00,86.28
           C 224.23,88.85 215.46,89.65 198.00,96.05
             155.01,111.81 119.46,143.93 100.86,186.00
             72.31,250.60 85.37,326.99 136.00,376.99
             152.51,393.28 172.50,405.87 194.00,414.40
             208.80,420.27 231.09,425.81 247.00,426.00
             247.00,426.00 263.00,426.00 263.00,426.00
             284.39,425.97 311.90,418.24 331.00,408.75
             349.27,399.67 369.15,385.50 382.42,370.00
             399.93,349.55 412.15,329.01 419.57,303.00
             438.47,236.77 415.85,165.89 362.00,122.81
             345.22,109.39 327.34,100.30 307.00,93.67
             287.60,87.35 262.33,84.39 242.00,86.28 Z
           M 234.00,149.00
           C 234.00,149.00 278.00,149.00 278.00,149.00
             278.00,149.00 278.00,192.00 278.00,192.00
             278.00,192.00 234.00,192.00 234.00,192.00
             234.00,192.00 234.00,149.00 234.00,149.00 Z
           M 234.00,234.00
           C 234.00,234.00 278.00,234.00 278.00,234.00
             278.00,234.00 278.00,363.00 278.00,363.00
             278.00,363.00 234.00,363.00 234.00,363.00
             234.00,363.00 234.00,234.00 234.00,234.00 Z" />
</svg>
