<svg width="180.6mm" height="180.6mm" viewBox="0 0 512 512">
  <path fill="black" stroke="none" stroke-width="0"
        d="M 224.00,42.21
           C 224.00,42.21 238.00,42.21 238.00,42.21
             238.00,42.21 250.00,42.91 250.00,42.91
             330.23,48.77 397.48,103.60 419.71,181.00
             423.24,193.28 426.85,212.31 427.00,225.00
             427.35,254.87 424.29,282.28 412.14,310.00
             407.40,320.81 402.21,331.15 395.65,341.00
             393.85,343.70 387.72,351.08 387.95,354.00
             388.15,356.50 391.31,359.29 393.00,361.00
             393.00,361.00 408.00,376.00 408.00,376.00
             408.00,376.00 445.00,413.00 445.00,413.00
             445.00,413.00 464.47,433.00 464.47,433.00
             474.94,446.61 469.76,466.20 452.00,469.53
             437.78,472.20 428.95,460.95 420.00,452.00
             420.00,452.00 374.00,406.00 374.00,406.00
             374.00,406.00 362.00,394.00 362.00,394.00
             360.39,392.40 357.09,388.81 355.00,388.16
             351.37,387.02 340.61,395.98 337.00,398.19
             322.00,407.38 305.94,414.74 289.00,419.57
             238.24,434.06 182.69,427.73 137.00,400.99
             117.40,389.52 99.77,374.64 85.46,357.00
             23.41,280.52 28.24,168.10 98.17,98.17
             121.51,74.82 152.89,56.50 185.00,48.47
             194.24,46.16 203.54,44.41 213.00,43.28
             213.00,43.28 224.00,42.21 224.00,42.21 Z
           M 222.00,86.28
           C 222.00,86.28 211.00,87.61 211.00,87.61
             185.07,92.18 161.61,102.29 141.00,118.81
             72.27,173.89 67.15,279.35 130.01,340.96
             153.80,364.27 186.85,379.66 220.00,383.04
             220.00,383.04 233.00,383.04 233.00,383.04
             251.29,383.92 269.91,380.44 287.00,374.05
             304.49,367.52 321.14,357.35 335.00,344.83
             397.40,288.48 398.94,191.52 341.91,131.00
             326.95,115.13 306.25,102.65 286.00,94.81
             267.45,87.63 241.80,84.44 222.00,86.28 Z" />
</svg>
